<svg width="261" height="74" viewBox="0 0 261 74" fill="none" xmlns="http://www.w3.org/2000/svg">
<path d="M110.64 20.84H134.96V26.6H126.16V49H119.44V26.6H110.64V20.84ZM144.223 27.24C151.183 27.24 155.423 32.28 155.423 38.44C155.423 44.6 151.183 49.64 144.223 49.64C137.263 49.64 133.023 44.6 133.023 38.44C133.023 32.28 137.263 27.24 144.223 27.24ZM144.223 44.2C147.383 44.2 149.023 41.56 149.023 38.44C149.023 35.32 147.383 32.68 144.223 32.68C141.063 32.68 139.423 35.32 139.423 38.44C139.423 41.56 141.063 44.2 144.223 44.2ZM168.051 27.24C175.011 27.24 179.251 32.28 179.251 38.44C179.251 44.6 175.011 49.64 168.051 49.64C161.091 49.64 156.851 44.6 156.851 38.44C156.851 32.28 161.091 27.24 168.051 27.24ZM168.051 44.2C171.211 44.2 172.851 41.56 172.851 38.44C172.851 35.32 171.211 32.68 168.051 32.68C164.891 32.68 163.251 35.32 163.251 38.44C163.251 41.56 164.891 44.2 168.051 44.2ZM181.178 20.2H187.578V49H181.178V20.2ZM197.5 20.2V28.52C197.5 29.12 197.34 29.72 197.06 30.28C196.74 30.96 196.22 31.68 196.74 31.92C197.22 32.16 197.5 31.6 197.66 31.32C198.98 28.88 201.1 27.24 204.3 27.24C210.1 27.24 213.5 32.2 213.5 38.44C213.5 44.68 210.1 49.64 204.3 49.64C201.14 49.64 198.98 48.04 197.66 45.52C197.54 45.28 197.34 44.84 196.94 44.96C196.34 45.16 196.7 45.84 197.02 46.52C197.34 47.08 197.5 47.64 197.5 48.24V49H191.1V20.2H197.5ZM202.46 44.2C205.66 44.2 207.1 41.52 207.1 38.44C207.1 35.36 205.66 32.68 202.46 32.68C199.42 32.68 197.5 35.36 197.5 38.44C197.5 41.52 199.42 44.2 202.46 44.2ZM226.293 27.24C233.253 27.24 237.493 32.28 237.493 38.44C237.493 44.6 233.253 49.64 226.293 49.64C219.333 49.64 215.093 44.6 215.093 38.44C215.093 32.28 219.333 27.24 226.293 27.24ZM226.293 44.2C229.453 44.2 231.093 41.56 231.093 38.44C231.093 35.32 229.453 32.68 226.293 32.68C223.133 32.68 221.493 35.32 221.493 38.44C221.493 41.56 223.133 44.2 226.293 44.2ZM236.523 49L244.043 37.96L237.163 27.88H244.363L247.243 33.12C247.563 33.68 247.723 34.32 247.723 34.8C247.723 35.2 247.843 35.64 248.363 35.64C248.883 35.64 249.003 35.2 249.003 34.8C249.003 34.32 249.163 33.68 249.483 33.12L252.363 27.88H259.563L252.683 37.96L260.203 49H253.003L249.483 42.76C249.123 42.16 249.043 41.56 249.003 41.08C248.963 40.68 248.923 40.24 248.363 40.24C247.803 40.24 247.763 40.68 247.723 41.08C247.683 41.56 247.603 42.16 247.243 42.76L243.723 49H236.523Z" fill="white"/>
<g clip-path="url(#clip0_2920_20301)">
<path fill-rule="evenodd" clip-rule="evenodd" d="M57.9425 5.01355H32.0575C25.9542 5.01355 21.0066 9.99666 21.0066 16.1436V17.3469C21.0066 23.4939 25.9542 28.477 32.0575 28.477H57.9425C64.0458 28.477 68.9934 23.4939 68.9934 17.3469V16.1436C68.9934 9.99666 64.0458 5.01355 57.9425 5.01355ZM32.0575 0C23.2051 0 16.0288 7.22775 16.0288 16.1436V17.3469C16.0288 26.2628 23.2051 33.4905 32.0575 33.4905H42.8097V37H28.2743C22.9959 37 18.7168 41.3097 18.7168 46.626V47.5285H9.88364H5.00277V51.5894V58.8672C2.07802 59.9888 0 62.8394 0 66.1789C0 70.4983 3.47673 74 7.76549 74C12.0542 74 15.531 70.4983 15.531 66.1789C15.531 62.599 13.1429 59.5808 9.88364 58.6522V51.5894H18.7168V60.664C18.7168 65.9802 22.9959 70.29 28.2743 70.29H61.7257C67.0041 70.29 71.2832 65.9802 71.2832 60.664V50.2358H80.1163H84.9972V46.1748V38.897C87.9219 37.7754 90 34.9248 90 31.5854C90 27.2659 86.5232 23.7642 82.2345 23.7642C77.9458 23.7642 74.469 27.2659 74.469 31.5854C74.469 35.1652 76.8571 38.1834 80.1163 39.112V46.1748H71.2728C71.0389 41.068 66.854 37 61.7257 37H47.1903V33.4905H57.9425C66.7949 33.4905 73.9712 26.2628 73.9712 17.3469V16.1436C73.9712 7.22775 66.7949 0 57.9425 0H32.0575ZM78.1395 31.5854C78.1395 33.8631 79.973 35.7097 82.2345 35.7097C84.4961 35.7097 86.3295 33.8631 86.3295 31.5854C86.3295 29.3076 84.4961 27.461 82.2345 27.461C79.973 27.461 78.1395 29.3076 78.1395 31.5854ZM11.8605 66.1789C11.8605 63.9011 10.027 62.0545 7.76549 62.0545C5.5039 62.0545 3.67052 63.9011 3.67052 66.1789C3.67052 68.4566 5.5039 70.3032 7.76549 70.3032C10.027 70.3032 11.8605 68.4566 11.8605 66.1789ZM28.2743 42.0135C25.7451 42.0135 23.6947 44.0786 23.6947 46.626V60.664C23.6947 63.2113 25.7451 65.2764 28.2743 65.2764H61.7257C64.2549 65.2764 66.3053 63.2113 66.3053 60.664V46.626C66.3053 44.0786 64.2549 42.0135 61.7257 42.0135H28.2743ZM37.135 17.1463C37.135 18.7523 35.8423 20.0542 34.2478 20.0542C32.6533 20.0542 31.3606 18.7523 31.3606 17.1463C31.3606 15.5404 32.6533 14.2385 34.2478 14.2385C35.8423 14.2385 37.135 15.5404 37.135 17.1463ZM59.9336 17.1463C59.9336 18.7523 58.641 20.0542 57.0465 20.0542C55.4519 20.0542 54.1593 18.7523 54.1593 17.1463C54.1593 15.5404 55.4519 14.2385 57.0465 14.2385C58.641 14.2385 59.9336 15.5404 59.9336 17.1463Z" fill="white"/>
</g>
<defs>
<clipPath id="clip0_2920_20301">
<rect width="90" height="74" fill="white"/>
</clipPath>
</defs>
</svg>
