<svg width="90" height="74" viewBox="0 0 90 74" fill="none" xmlns="http://www.w3.org/2000/svg">
<path fill-rule="evenodd" clip-rule="evenodd" d="M57.9425 5.01355H32.0575C25.9542 5.01355 21.0066 9.99666 21.0066 16.1436V17.3469C21.0066 23.4939 25.9542 28.477 32.0575 28.477H57.9425C64.0458 28.477 68.9934 23.4939 68.9934 17.3469V16.1436C68.9934 9.99666 64.0458 5.01355 57.9425 5.01355ZM32.0575 0C23.2051 0 16.0288 7.22775 16.0288 16.1436V17.3469C16.0288 26.2628 23.2051 33.4905 32.0575 33.4905H42.8097V37H28.2743C22.9959 37 18.7168 41.3097 18.7168 46.626V47.5285H9.88364H5.00277V51.5894V58.8672C2.07802 59.9888 0 62.8394 0 66.1789C0 70.4983 3.47673 74 7.76549 74C12.0542 74 15.531 70.4983 15.531 66.1789C15.531 62.599 13.1429 59.5808 9.88364 58.6522V51.5894H18.7168V60.664C18.7168 65.9802 22.9959 70.29 28.2743 70.29H61.7257C67.0041 70.29 71.2832 65.9802 71.2832 60.664V50.2358H80.1163H84.9972V46.1748V38.897C87.9219 37.7754 90 34.9248 90 31.5854C90 27.2659 86.5232 23.7642 82.2345 23.7642C77.9458 23.7642 74.469 27.2659 74.469 31.5854C74.469 35.1652 76.8571 38.1834 80.1163 39.112V46.1748H71.2728C71.0389 41.068 66.854 37 61.7257 37H47.1903V33.4905H57.9425C66.7949 33.4905 73.9712 26.2628 73.9712 17.3469V16.1436C73.9712 7.22775 66.7949 0 57.9425 0H32.0575ZM78.1395 31.5854C78.1395 33.8631 79.973 35.7097 82.2345 35.7097C84.4961 35.7097 86.3295 33.8631 86.3295 31.5854C86.3295 29.3076 84.4961 27.461 82.2345 27.461C79.973 27.461 78.1395 29.3076 78.1395 31.5854ZM11.8605 66.1789C11.8605 63.9011 10.027 62.0545 7.76549 62.0545C5.5039 62.0545 3.67052 63.9011 3.67052 66.1789C3.67052 68.4566 5.5039 70.3032 7.76549 70.3032C10.027 70.3032 11.8605 68.4566 11.8605 66.1789ZM28.2743 42.0135C25.7451 42.0135 23.6947 44.0786 23.6947 46.626V60.664C23.6947 63.2113 25.7451 65.2764 28.2743 65.2764H61.7257C64.2549 65.2764 66.3053 63.2113 66.3053 60.664V46.626C66.3053 44.0786 64.2549 42.0135 61.7257 42.0135H28.2743ZM37.135 17.1463C37.135 18.7523 35.8423 20.0542 34.2478 20.0542C32.6533 20.0542 31.3606 18.7523 31.3606 17.1463C31.3606 15.5404 32.6533 14.2385 34.2478 14.2385C35.8423 14.2385 37.135 15.5404 37.135 17.1463ZM59.9336 17.1463C59.9336 18.7523 58.641 20.0542 57.0465 20.0542C55.4519 20.0542 54.1593 18.7523 54.1593 17.1463C54.1593 15.5404 55.4519 14.2385 57.0465 14.2385C58.641 14.2385 59.9336 15.5404 59.9336 17.1463Z" fill="white"/>
</svg>
