<svg width="261" height="81" viewBox="0 0 261 81" fill="none" xmlns="http://www.w3.org/2000/svg">
<path d="M110.64 27.84H134.96V33.6H126.16V56H119.44V33.6H110.64V27.84ZM144.223 34.24C151.183 34.24 155.423 39.28 155.423 45.44C155.423 51.6 151.183 56.64 144.223 56.64C137.263 56.64 133.023 51.6 133.023 45.44C133.023 39.28 137.263 34.24 144.223 34.24ZM144.223 51.2C147.383 51.2 149.023 48.56 149.023 45.44C149.023 42.32 147.383 39.68 144.223 39.68C141.063 39.68 139.423 42.32 139.423 45.44C139.423 48.56 141.063 51.2 144.223 51.2ZM168.051 34.24C175.011 34.24 179.251 39.28 179.251 45.44C179.251 51.6 175.011 56.64 168.051 56.64C161.091 56.64 156.851 51.6 156.851 45.44C156.851 39.28 161.091 34.24 168.051 34.24ZM168.051 51.2C171.211 51.2 172.851 48.56 172.851 45.44C172.851 42.32 171.211 39.68 168.051 39.68C164.891 39.68 163.251 42.32 163.251 45.44C163.251 48.56 164.891 51.2 168.051 51.2ZM181.178 27.2H187.578V56H181.178V27.2ZM197.5 27.2V35.52C197.5 36.12 197.34 36.72 197.06 37.28C196.74 37.96 196.22 38.68 196.74 38.92C197.22 39.16 197.5 38.6 197.66 38.32C198.98 35.88 201.1 34.24 204.3 34.24C210.1 34.24 213.5 39.2 213.5 45.44C213.5 51.68 210.1 56.64 204.3 56.64C201.14 56.64 198.98 55.04 197.66 52.52C197.54 52.28 197.34 51.84 196.94 51.96C196.34 52.16 196.7 52.84 197.02 53.52C197.34 54.08 197.5 54.64 197.5 55.24V56H191.1V27.2H197.5ZM202.46 51.2C205.66 51.2 207.1 48.52 207.1 45.44C207.1 42.36 205.66 39.68 202.46 39.68C199.42 39.68 197.5 42.36 197.5 45.44C197.5 48.52 199.42 51.2 202.46 51.2ZM226.293 34.24C233.253 34.24 237.493 39.28 237.493 45.44C237.493 51.6 233.253 56.64 226.293 56.64C219.333 56.64 215.093 51.6 215.093 45.44C215.093 39.28 219.333 34.24 226.293 34.24ZM226.293 51.2C229.453 51.2 231.093 48.56 231.093 45.44C231.093 42.32 229.453 39.68 226.293 39.68C223.133 39.68 221.493 42.32 221.493 45.44C221.493 48.56 223.133 51.2 226.293 51.2ZM236.523 56L244.043 44.96L237.163 34.88H244.363L247.243 40.12C247.563 40.68 247.723 41.32 247.723 41.8C247.723 42.2 247.843 42.64 248.363 42.64C248.883 42.64 249.003 42.2 249.003 41.8C249.003 41.32 249.163 40.68 249.483 40.12L252.363 34.88H259.563L252.683 44.96L260.203 56H253.003L249.483 49.76C249.123 49.16 249.043 48.56 249.003 48.08C248.963 47.68 248.923 47.24 248.363 47.24C247.803 47.24 247.763 47.68 247.723 48.08C247.683 48.56 247.603 49.16 247.243 49.76L243.723 56H236.523Z" fill="#090909"/>
<g clip-path="url(#clip0_3282_20267)">
<path fill-rule="evenodd" clip-rule="evenodd" d="M57.9425 12.0136H32.0575C25.9542 12.0136 21.0066 16.9967 21.0066 23.1436V24.3469C21.0066 30.4939 25.9542 35.477 32.0575 35.477H57.9425C64.0458 35.477 68.9934 30.4939 68.9934 24.3469V23.1436C68.9934 16.9967 64.0458 12.0136 57.9425 12.0136ZM32.0575 7C23.2051 7 16.0288 14.2278 16.0288 23.1436V24.3469C16.0288 33.2628 23.2051 40.4905 32.0575 40.4905H42.8097V44H28.2743C22.9959 44 18.7168 48.3097 18.7168 53.626V54.5285H9.88364H5.00277V58.5894V65.8672C2.07802 66.9888 0 69.8394 0 73.1789C0 77.4983 3.47673 81 7.76549 81C12.0542 81 15.531 77.4983 15.531 73.1789C15.531 69.599 13.1429 66.5808 9.88364 65.6522V58.5894H18.7168V67.664C18.7168 72.9802 22.9959 77.29 28.2743 77.29H61.7257C67.0041 77.29 71.2832 72.9802 71.2832 67.664V57.2358H80.1163H84.9972V53.1748V45.897C87.9219 44.7754 90 41.9248 90 38.5854C90 34.2659 86.5232 30.7642 82.2345 30.7642C77.9458 30.7642 74.469 34.2659 74.469 38.5854C74.469 42.1652 76.8571 45.1834 80.1163 46.112V53.1748H71.2728C71.0389 48.068 66.854 44 61.7257 44H47.1903V40.4905H57.9425C66.7949 40.4905 73.9712 33.2628 73.9712 24.3469V23.1436C73.9712 14.2278 66.7949 7 57.9425 7H32.0575ZM78.1395 38.5854C78.1395 40.8631 79.973 42.7097 82.2345 42.7097C84.4961 42.7097 86.3295 40.8631 86.3295 38.5854C86.3295 36.3076 84.4961 34.461 82.2345 34.461C79.973 34.461 78.1395 36.3076 78.1395 38.5854ZM11.8605 73.1789C11.8605 70.9011 10.027 69.0545 7.76549 69.0545C5.5039 69.0545 3.67052 70.9011 3.67052 73.1789C3.67052 75.4566 5.5039 77.3032 7.76549 77.3032C10.027 77.3032 11.8605 75.4566 11.8605 73.1789ZM28.2743 49.0135C25.7451 49.0135 23.6947 51.0786 23.6947 53.626V67.664C23.6947 70.2113 25.7451 72.2764 28.2743 72.2764H61.7257C64.2549 72.2764 66.3053 70.2113 66.3053 67.664V53.626C66.3053 51.0786 64.2549 49.0135 61.7257 49.0135H28.2743ZM37.135 24.1463C37.135 25.7523 35.8423 27.0542 34.2478 27.0542C32.6533 27.0542 31.3606 25.7523 31.3606 24.1463C31.3606 22.5404 32.6533 21.2385 34.2478 21.2385C35.8423 21.2385 37.135 22.5404 37.135 24.1463ZM59.9336 24.1463C59.9336 25.7523 58.641 27.0542 57.0465 27.0542C55.4519 27.0542 54.1593 25.7523 54.1593 24.1463C54.1593 22.5404 55.4519 21.2385 57.0465 21.2385C58.641 21.2385 59.9336 22.5404 59.9336 24.1463Z" fill="#090909"/>
</g>
<path d="M113.076 19.0522C113.04 18.6382 112.101 17.8433 111.704 17.7015C111.306 17.5588 110.86 17.656 110.56 17.9492L104.55 23.864L96.7433 16.1813L102.874 10.1709C103.174 9.87704 103.272 9.43985 103.127 9.05004C102.981 8.65947 102.019 7.83203 101.595 7.79617C97.8724 7.48167 94.2244 8.78492 91.5869 11.3712C87.9746 14.913 87.018 20.0851 88.712 24.4937C88.5268 24.6466 88.3441 24.8087 88.1639 24.9834L67.7005 43.9149C67.6933 43.9218 67.6862 43.9293 67.6783 43.9361C65.2718 46.2957 65.2718 50.1348 67.6783 52.4948C70.0853 54.8541 73.9725 54.8255 76.3787 52.4659C76.3891 52.4564 76.3986 52.4469 76.408 52.4363L95.5491 32.2173C95.7236 32.0455 95.8856 31.8657 96.0383 31.6812C100.536 33.345 105.815 32.4093 109.43 28.8651C112.067 26.2787 113.397 22.7019 113.076 19.0522Z" stroke="black" stroke-width="2" stroke-linejoin="round"/>
<defs>
<clipPath id="clip0_3282_20267">
<rect width="90" height="74" fill="white" transform="translate(0 7)"/>
</clipPath>
</defs>
</svg>
